<svg width="1653" height="993" xmlns="http://www.w3.org/2000/svg" xmlns:xlink="http://www.w3.org/1999/xlink" overflow="hidden"><defs><clipPath id="clip0"><rect x="3524" y="762" width="1653" height="993"/></clipPath><clipPath id="clip1"><rect x="3525" y="763" width="1650" height="990"/></clipPath><clipPath id="clip2"><rect x="3732" y="933" width="1396" height="620"/></clipPath><clipPath id="clip3"><rect x="3525" y="763" width="1650" height="990"/></clipPath><clipPath id="clip4"><rect x="3525" y="763" width="1650" height="990"/></clipPath><clipPath id="clip5"><rect x="3525" y="763" width="1650" height="990"/></clipPath><clipPath id="clip6"><rect x="3525" y="763" width="1650" height="990"/></clipPath><clipPath id="clip7"><rect x="3525" y="763" width="1650" height="990"/></clipPath><clipPath id="clip8"><rect x="3525" y="763" width="1650" height="990"/></clipPath><clipPath id="clip9"><rect x="3525" y="763" width="1650" height="990"/></clipPath><clipPath id="clip10"><rect x="3525" y="763" width="1650" height="990"/></clipPath><clipPath id="clip11"><rect x="3525" y="763" width="1650" height="990"/></clipPath><clipPath id="clip12"><rect x="3525" y="763" width="1650" height="990"/></clipPath><clipPath id="clip13"><rect x="3525" y="763" width="1650" height="990"/></clipPath><clipPath id="clip14"><rect x="3525" y="763" width="1650" height="990"/></clipPath><clipPath id="clip15"><rect x="3525" y="763" width="1650" height="990"/></clipPath><clipPath id="clip16"><rect x="3525" y="763" width="1650" height="990"/></clipPath><clipPath id="clip17"><rect x="3525" y="763" width="1650" height="990"/></clipPath><clipPath id="clip18"><rect x="3525" y="763" width="1650" height="990"/></clipPath><clipPath id="clip19"><rect x="3525" y="763" width="1650" height="990"/></clipPath></defs><g clip-path="url(#clip0)" transform="translate(-3524 -762)"><rect x="3525" y="763" width="1650" height="990" fill="#FFFFFF"/><g clip-path="url(#clip1)"><path d="M3732.5 1461.55 5124.5 1461.55M3732.5 1373.55 5124.5 1373.55M3732.5 1285.54 5124.5 1285.54M3732.5 1197.54 5124.5 1197.54M3732.5 1109.54 5124.5 1109.54M3732.5 1021.53 5124.5 1021.53M3732.5 933.5 5124.5 933.5" stroke="#D9D9D9" stroke-width="3.4375" stroke-linejoin="round" stroke-miterlimit="10" fill="none"/></g><g clip-path="url(#clip2)"><path d="M3828.13 1021.03 3915.13 1021.03 3915.13 1550 3828.13 1550ZM4106.13 1021.03 4193.14 1021.03 4193.14 1550 4106.13 1550ZM4385.14 1021.03 4472.15 1021.03 4472.15 1550 4385.14 1550ZM4663.15 1021.03 4750.16 1021.03 4750.16 1550 4663.15 1550ZM4942.16 1021.03 5029.17 1021.03 5029.17 1550 4942.16 1550Z" fill="#4472C4"/></g><g clip-path="url(#clip3)"><path d="M3732.5 1549.5 5124.5 1549.5" stroke="#D9D9D9" stroke-width="3.4375" stroke-linejoin="round" stroke-miterlimit="10" fill="none" fill-rule="evenodd"/></g><g clip-path="url(#clip4)"><text fill="#595959" font-family="Calibri,Calibri_MSFontService,sans-serif" font-weight="400" font-size="41" transform="matrix(1 0 0 1 3673.04 1561)">0</text></g><g clip-path="url(#clip5)"><text fill="#595959" font-family="Calibri,Calibri_MSFontService,sans-serif" font-weight="400" font-size="41" transform="matrix(1 0 0 1 3673.04 1473)">2</text></g><g clip-path="url(#clip6)"><text fill="#595959" font-family="Calibri,Calibri_MSFontService,sans-serif" font-weight="400" font-size="41" transform="matrix(1 0 0 1 3673.04 1385)">4</text></g><g clip-path="url(#clip7)"><text fill="#595959" font-family="Calibri,Calibri_MSFontService,sans-serif" font-weight="400" font-size="41" transform="matrix(1 0 0 1 3673.04 1297)">6</text></g><g clip-path="url(#clip8)"><text fill="#595959" font-family="Calibri,Calibri_MSFontService,sans-serif" font-weight="400" font-size="41" transform="matrix(1 0 0 1 3673.04 1209)">8</text></g><g clip-path="url(#clip9)"><text fill="#595959" font-family="Calibri,Calibri_MSFontService,sans-serif" font-weight="400" font-size="41" transform="matrix(1 0 0 1 3652.14 1121)">10</text></g><g clip-path="url(#clip10)"><text fill="#595959" font-family="Calibri,Calibri_MSFontService,sans-serif" font-weight="400" font-size="41" transform="matrix(1 0 0 1 3652.14 1033)">12</text></g><g clip-path="url(#clip11)"><text fill="#595959" font-family="Calibri,Calibri_MSFontService,sans-serif" font-weight="400" font-size="41" transform="matrix(1 0 0 1 3652.14 945)">14</text></g><g clip-path="url(#clip12)"><text fill="#595959" font-family="Calibri,Calibri_MSFontService,sans-serif" font-weight="400" font-size="41" transform="matrix(1 0 0 1 3785.22 1615)">Proband 1</text></g><g clip-path="url(#clip13)"><text fill="#595959" font-family="Calibri,Calibri_MSFontService,sans-serif" font-weight="400" font-size="41" transform="matrix(1 0 0 1 4063.73 1615)">Proband 2</text></g><g clip-path="url(#clip14)"><text fill="#595959" font-family="Calibri,Calibri_MSFontService,sans-serif" font-weight="400" font-size="41" transform="matrix(1 0 0 1 4342.24 1615)">Proband 3</text></g><g clip-path="url(#clip15)"><text fill="#595959" font-family="Calibri,Calibri_MSFontService,sans-serif" font-weight="400" font-size="41" transform="matrix(1 0 0 1 4620.74 1615)">Proband 4</text></g><g clip-path="url(#clip16)"><text fill="#595959" font-family="Calibri,Calibri_MSFontService,sans-serif" font-weight="400" font-size="41" transform="matrix(1 0 0 1 4899.25 1615)">Proband 5</text></g><g clip-path="url(#clip17)"><text fill="#595959" font-family="Calibri,Calibri_MSFontService,sans-serif" font-weight="400" font-size="46" transform="matrix(6.12323e-17 -1 1 6.12323e-17 3626.45 1414)">Anzahl der Marker</text></g><g clip-path="url(#clip18)"><text fill="#595959" font-family="Calibri,Calibri_MSFontService,sans-serif" font-weight="400" font-size="46" transform="matrix(1 0 0 1 4326.01 1684)">Probanden</text></g><g clip-path="url(#clip19)"><text fill="#595959" font-family="Calibri,Calibri_MSFontService,sans-serif" font-weight="400" font-size="64" transform="matrix(1 0 0 1 3963.4 859)">Anzahl  eingescannter Marker</text></g><rect x="3525.5" y="763.5" width="1650" height="990" stroke="#D9D9D9" stroke-width="3.4375" stroke-linejoin="round" stroke-miterlimit="10" fill="none"/></g></svg>