<svg width="1891" height="1010" xmlns="http://www.w3.org/2000/svg" xmlns:xlink="http://www.w3.org/1999/xlink" overflow="hidden"><defs><clipPath id="clip0"><rect x="51" y="1044" width="1891" height="1010"/></clipPath><clipPath id="clip1"><rect x="51" y="1044" width="1889" height="1008"/></clipPath><clipPath id="clip2"><rect x="258" y="1214" width="969" height="638"/></clipPath><clipPath id="clip3"><rect x="258" y="1214" width="969" height="638"/></clipPath><clipPath id="clip4"><rect x="258" y="1214" width="969" height="634"/></clipPath><clipPath id="clip5"><rect x="258" y="1214" width="969" height="634"/></clipPath><clipPath id="clip6"><rect x="258" y="1214" width="969" height="634"/></clipPath><clipPath id="clip7"><rect x="258" y="1214" width="969" height="634"/></clipPath><clipPath id="clip8"><rect x="258" y="1214" width="969" height="634"/></clipPath><clipPath id="clip9"><rect x="258" y="1214" width="969" height="634"/></clipPath><clipPath id="clip10"><rect x="258" y="1214" width="969" height="634"/></clipPath><clipPath id="clip11"><rect x="258" y="1214" width="969" height="634"/></clipPath><clipPath id="clip12"><rect x="258" y="1214" width="969" height="634"/></clipPath><clipPath id="clip13"><rect x="258" y="1214" width="969" height="634"/></clipPath><clipPath id="clip14"><rect x="51" y="1044" width="1889" height="1008"/></clipPath><clipPath id="clip15"><rect x="51" y="1044" width="1889" height="1008"/></clipPath><clipPath id="clip16"><rect x="51" y="1044" width="1889" height="1008"/></clipPath><clipPath id="clip17"><rect x="51" y="1044" width="1889" height="1008"/></clipPath><clipPath id="clip18"><rect x="51" y="1044" width="1889" height="1008"/></clipPath><clipPath id="clip19"><rect x="51" y="1044" width="1889" height="1008"/></clipPath><clipPath id="clip20"><rect x="51" y="1044" width="1889" height="1008"/></clipPath><clipPath id="clip21"><rect x="51" y="1044" width="1889" height="1008"/></clipPath><clipPath id="clip22"><rect x="51" y="1044" width="1889" height="1008"/></clipPath><clipPath id="clip23"><rect x="51" y="1044" width="1889" height="1008"/></clipPath><clipPath id="clip24"><rect x="51" y="1044" width="1889" height="1008"/></clipPath><clipPath id="clip25"><rect x="51" y="1044" width="1889" height="1008"/></clipPath><clipPath id="clip26"><rect x="51" y="1044" width="1889" height="1008"/></clipPath><clipPath id="clip27"><rect x="51" y="1044" width="1889" height="1008"/></clipPath><clipPath id="clip28"><rect x="51" y="1044" width="1889" height="1008"/></clipPath><clipPath id="clip29"><rect x="51" y="1044" width="1889" height="1008"/></clipPath><clipPath id="clip30"><rect x="51" y="1044" width="1889" height="1008"/></clipPath><clipPath id="clip31"><rect x="51" y="1044" width="1889" height="1008"/></clipPath><clipPath id="clip32"><rect x="51" y="1044" width="1889" height="1008"/></clipPath><clipPath id="clip33"><rect x="51" y="1044" width="1889" height="1008"/></clipPath><clipPath id="clip34"><rect x="51" y="1044" width="1889" height="1008"/></clipPath><clipPath id="clip35"><rect x="51" y="1044" width="1889" height="1008"/></clipPath><clipPath id="clip36"><rect x="51" y="1044" width="1889" height="1008"/></clipPath><clipPath id="clip37"><rect x="51" y="1044" width="1889" height="1008"/></clipPath><clipPath id="clip38"><rect x="51" y="1044" width="1889" height="1008"/></clipPath><clipPath id="clip39"><rect x="51" y="1044" width="1889" height="1008"/></clipPath><clipPath id="clip40"><rect x="51" y="1044" width="1889" height="1008"/></clipPath><clipPath id="clip41"><rect x="51" y="1044" width="1889" height="1008"/></clipPath><clipPath id="clip42"><rect x="51" y="1044" width="1889" height="1008"/></clipPath><clipPath id="clip43"><rect x="51" y="1044" width="1889" height="1008"/></clipPath><clipPath id="clip44"><rect x="51" y="1044" width="1889" height="1008"/></clipPath></defs><g clip-path="url(#clip0)" transform="translate(-51 -1044)"><rect x="51.9999" y="1045" width="1888" height="1007" fill="#FFFFFF"/><g clip-path="url(#clip1)"><path d="M258.5 1758.56 1223.5 1758.56M258.5 1667.55 1223.5 1667.55M258.5 1577.55 1223.5 1577.55M258.5 1486.55 1223.5 1486.55M258.5 1396.55 1223.5 1396.55M258.5 1305.54 1223.5 1305.54M258.5 1214.5 1223.5 1214.5" stroke="#D9D9D9" stroke-width="3.4375" stroke-linejoin="round" stroke-miterlimit="10" fill="none"/></g><g clip-path="url(#clip2)"><path d="M306.01 1305.04 349.011 1305.04 349.011 1849 306.01 1849ZM499.016 1305.04 542.018 1305.04 542.018 1849 499.016 1849ZM692.023 1396.05 735.024 1396.05 735.024 1849 692.023 1849ZM885.029 1396.05 928.03 1396.05 928.03 1849 885.029 1849ZM1078.04 1441.05 1122.04 1441.05 1122.04 1849 1078.04 1849Z" fill="#4472C4"/></g><g clip-path="url(#clip3)"><path d="M361.012 1305.04 404.013 1305.04 404.013 1849 361.012 1849ZM554.018 1305.04 597.02 1305.04 597.02 1849 554.018 1849ZM747.025 1305.04 790.026 1305.04 790.026 1849 747.025 1849ZM940.031 1305.04 983.032 1305.04 983.032 1849 940.031 1849ZM1133.04 1305.04 1177.04 1305.04 1177.04 1849 1133.04 1849Z" fill="#ED7D31"/></g><g clip-path="url(#clip4)"><path d="M327.511 1305.54 327.511 1332.5M327.511 1305.54 327.511 1278.5M317.5 1332.5 337.5 1332.5M317.5 1278.5 337.5 1278.5" stroke="#595959" stroke-width="3.4375" stroke-linejoin="round" stroke-miterlimit="10" fill="none"/></g><g clip-path="url(#clip5)"><path d="M520.517 1305.54 520.517 1332.5M520.517 1305.54 520.517 1278.5M510.5 1332.5 531.5 1332.5M510.5 1278.5 531.5 1278.5" stroke="#595959" stroke-width="3.4375" stroke-linejoin="round" stroke-miterlimit="10" fill="none"/></g><g clip-path="url(#clip6)"><path d="M713.524 1396.55 713.524 1423.5M713.524 1396.55 713.524 1368.5M703.5 1423.5 724.5 1423.5M703.5 1368.5 724.5 1368.5" stroke="#595959" stroke-width="3.4375" stroke-linejoin="round" stroke-miterlimit="10" fill="none"/></g><g clip-path="url(#clip7)"><path d="M906.53 1396.55 906.53 1423.5M906.53 1396.55 906.53 1368.5M896.5 1423.5 917.5 1423.5M896.5 1368.5 917.5 1368.5" stroke="#595959" stroke-width="3.4375" stroke-linejoin="round" stroke-miterlimit="10" fill="none"/></g><g clip-path="url(#clip8)"><path d="M1099.54 1441.55 1099.54 1468.5M1099.54 1441.55 1099.54 1414.5M1089.5 1468.5 1110.5 1468.5M1089.5 1414.5 1110.5 1414.5" stroke="#595959" stroke-width="3.4375" stroke-linejoin="round" stroke-miterlimit="10" fill="none"/></g><g clip-path="url(#clip9)"><path d="M372.5 1305.5 392.5 1305.5M372.5 1305.5 392.5 1305.5" stroke="#595959" stroke-width="3.4375" stroke-linejoin="round" stroke-miterlimit="10" fill="none"/></g><g clip-path="url(#clip10)"><path d="M565.5 1305.5 586.5 1305.5M565.5 1305.5 586.5 1305.5" stroke="#595959" stroke-width="3.4375" stroke-linejoin="round" stroke-miterlimit="10" fill="none"/></g><g clip-path="url(#clip11)"><path d="M758.5 1305.5 779.5 1305.5M758.5 1305.5 779.5 1305.5" stroke="#595959" stroke-width="3.4375" stroke-linejoin="round" stroke-miterlimit="10" fill="none"/></g><g clip-path="url(#clip12)"><path d="M951.5 1305.5 972.5 1305.5M951.5 1305.5 972.5 1305.5" stroke="#595959" stroke-width="3.4375" stroke-linejoin="round" stroke-miterlimit="10" fill="none"/></g><g clip-path="url(#clip13)"><path d="M1144.5 1305.5 1165.5 1305.5M1144.5 1305.5 1165.5 1305.5" stroke="#595959" stroke-width="3.4375" stroke-linejoin="round" stroke-miterlimit="10" fill="none"/></g><g clip-path="url(#clip14)"><path d="M258.5 1848.5 1223.5 1848.5" stroke="#D9D9D9" stroke-width="3.4375" stroke-linejoin="round" stroke-miterlimit="10" fill="none" fill-rule="evenodd"/></g><g clip-path="url(#clip15)"><text fill="#404040" font-family="Calibri,Calibri_MSFontService,sans-serif" font-weight="400" font-size="41" transform="matrix(1 0 0 1 306.758 1274)">12</text></g><g clip-path="url(#clip16)"><text fill="#404040" font-family="Calibri,Calibri_MSFontService,sans-serif" font-weight="400" font-size="41" transform="matrix(1 0 0 1 499.83 1274)">12</text></g><g clip-path="url(#clip17)"><text fill="#404040" font-family="Calibri,Calibri_MSFontService,sans-serif" font-weight="400" font-size="41" transform="matrix(1 0 0 1 692.902 1364)">10</text></g><g clip-path="url(#clip18)"><text fill="#404040" font-family="Calibri,Calibri_MSFontService,sans-serif" font-weight="400" font-size="41" transform="matrix(1 0 0 1 885.974 1364)">10</text></g><g clip-path="url(#clip19)"><text fill="#404040" font-family="Calibri,Calibri_MSFontService,sans-serif" font-weight="400" font-size="41" transform="matrix(1 0 0 1 1089.5 1409)">9</text></g><g clip-path="url(#clip20)"><text fill="#404040" font-family="Calibri,Calibri_MSFontService,sans-serif" font-weight="400" font-size="41" transform="matrix(1 0 0 1 361.736 1274)">12</text></g><g clip-path="url(#clip21)"><text fill="#404040" font-family="Calibri,Calibri_MSFontService,sans-serif" font-weight="400" font-size="41" transform="matrix(1 0 0 1 554.808 1274)">12</text></g><g clip-path="url(#clip22)"><text fill="#404040" font-family="Calibri,Calibri_MSFontService,sans-serif" font-weight="400" font-size="41" transform="matrix(1 0 0 1 747.88 1274)">12</text></g><g clip-path="url(#clip23)"><text fill="#404040" font-family="Calibri,Calibri_MSFontService,sans-serif" font-weight="400" font-size="41" transform="matrix(1 0 0 1 940.951 1274)">12</text></g><g clip-path="url(#clip24)"><text fill="#404040" font-family="Calibri,Calibri_MSFontService,sans-serif" font-weight="400" font-size="41" transform="matrix(1 0 0 1 1134.02 1274)">12</text></g><g clip-path="url(#clip25)"><text fill="#595959" font-family="Calibri,Calibri_MSFontService,sans-serif" font-weight="400" font-size="41" transform="matrix(1 0 0 1 199.444 1860)">0</text></g><g clip-path="url(#clip26)"><text fill="#595959" font-family="Calibri,Calibri_MSFontService,sans-serif" font-weight="400" font-size="41" transform="matrix(1 0 0 1 199.444 1770)">2</text></g><g clip-path="url(#clip27)"><text fill="#595959" font-family="Calibri,Calibri_MSFontService,sans-serif" font-weight="400" font-size="41" transform="matrix(1 0 0 1 199.444 1679)">4</text></g><g clip-path="url(#clip28)"><text fill="#595959" font-family="Calibri,Calibri_MSFontService,sans-serif" font-weight="400" font-size="41" transform="matrix(1 0 0 1 199.444 1589)">6</text></g><g clip-path="url(#clip29)"><text fill="#595959" font-family="Calibri,Calibri_MSFontService,sans-serif" font-weight="400" font-size="41" transform="matrix(1 0 0 1 199.444 1498)">8</text></g><g clip-path="url(#clip30)"><text fill="#595959" font-family="Calibri,Calibri_MSFontService,sans-serif" font-weight="400" font-size="41" transform="matrix(1 0 0 1 178.544 1408)">10</text></g><g clip-path="url(#clip31)"><text fill="#595959" font-family="Calibri,Calibri_MSFontService,sans-serif" font-weight="400" font-size="41" transform="matrix(1 0 0 1 178.544 1317)">12</text></g><g clip-path="url(#clip32)"><text fill="#595959" font-family="Calibri,Calibri_MSFontService,sans-serif" font-weight="400" font-size="41" transform="matrix(1 0 0 1 178.544 1227)">14</text></g><g clip-path="url(#clip33)"><text fill="#595959" font-family="Calibri,Calibri_MSFontService,sans-serif" font-weight="400" font-size="41" transform="matrix(1 0 0 1 268.911 1914)">Proband 1</text></g><g clip-path="url(#clip34)"><text fill="#595959" font-family="Calibri,Calibri_MSFontService,sans-serif" font-weight="400" font-size="41" transform="matrix(1 0 0 1 461.983 1914)">Proband 2</text></g><g clip-path="url(#clip35)"><text fill="#595959" font-family="Calibri,Calibri_MSFontService,sans-serif" font-weight="400" font-size="41" transform="matrix(1 0 0 1 655.055 1914)">Proband 3</text></g><g clip-path="url(#clip36)"><text fill="#595959" font-family="Calibri,Calibri_MSFontService,sans-serif" font-weight="400" font-size="41" transform="matrix(1 0 0 1 848.127 1914)">Proband 4</text></g><g clip-path="url(#clip37)"><text fill="#595959" font-family="Calibri,Calibri_MSFontService,sans-serif" font-weight="400" font-size="41" transform="matrix(1 0 0 1 1041.2 1914)">Proband 5</text></g><g clip-path="url(#clip38)"><text fill="#595959" font-family="Calibri,Calibri_MSFontService,sans-serif" font-weight="400" font-size="46" transform="matrix(6.12323e-17 -1 1 6.12323e-17 152.854 1796)">Anzahl der Erfassten Marker</text></g><g clip-path="url(#clip39)"><text fill="#595959" font-family="Calibri,Calibri_MSFontService,sans-serif" font-weight="400" font-size="46" transform="matrix(1 0 0 1 662.274 1983)">Proband</text></g><g clip-path="url(#clip40)"><text fill="#595959" font-family="Calibri,Calibri_MSFontService,sans-serif" font-weight="400" font-size="64" transform="matrix(1 0 0 1 384.198 1140)">Erfolgreich eingescannte Marker nach Prototyp</text></g><g clip-path="url(#clip41)"><rect x="1296" y="1558" width="23" height="23" fill="#4472C4"/></g><g clip-path="url(#clip42)"><text fill="#595959" font-family="Calibri,Calibri_MSFontService,sans-serif" font-weight="400" font-size="41" transform="matrix(1 0 0 1 1328.29 1581)">Prototyp 1 (Permanenter Marker)</text></g><g clip-path="url(#clip43)"><rect x="1296" y="1636" width="23" height="22" fill="#ED7D31"/></g><g clip-path="url(#clip44)"><text fill="#595959" font-family="Calibri,Calibri_MSFontService,sans-serif" font-weight="400" font-size="41" transform="matrix(1 0 0 1 1328.29 1659)">Prototyp 2 (Marker mit Hotkeys)</text></g><rect x="52.5001" y="1045.5" width="1888" height="1007" stroke="#D9D9D9" stroke-width="3.4375" stroke-linejoin="round" stroke-miterlimit="10" fill="none"/></g></svg>