<svg width="1653" height="993" xmlns="http://www.w3.org/2000/svg" xmlns:xlink="http://www.w3.org/1999/xlink" overflow="hidden"><defs><clipPath id="clip0"><rect x="2663" y="1216" width="1653" height="993"/></clipPath><clipPath id="clip1"><rect x="2664" y="1216" width="1650" height="990"/></clipPath><clipPath id="clip2"><rect x="2923" y="1373" width="919" height="583"/></clipPath><clipPath id="clip3"><rect x="2923" y="1373" width="919" height="583"/></clipPath><clipPath id="clip4"><rect x="2664" y="1216" width="1650" height="990"/></clipPath><clipPath id="clip5"><rect x="2664" y="1216" width="1650" height="990"/></clipPath><clipPath id="clip6"><rect x="2664" y="1216" width="1650" height="990"/></clipPath><clipPath id="clip7"><rect x="2664" y="1216" width="1650" height="990"/></clipPath><clipPath id="clip8"><rect x="2664" y="1216" width="1650" height="990"/></clipPath><clipPath id="clip9"><rect x="2664" y="1216" width="1650" height="990"/></clipPath><clipPath id="clip10"><rect x="2664" y="1216" width="1650" height="990"/></clipPath><clipPath id="clip11"><rect x="2664" y="1216" width="1650" height="990"/></clipPath><clipPath id="clip12"><rect x="2664" y="1216" width="1650" height="990"/></clipPath><clipPath id="clip13"><rect x="2664" y="1216" width="1650" height="990"/></clipPath><clipPath id="clip14"><rect x="2664" y="1216" width="1650" height="990"/></clipPath><clipPath id="clip15"><rect x="2664" y="1216" width="1650" height="990"/></clipPath><clipPath id="clip16"><rect x="2664" y="1216" width="1650" height="990"/></clipPath><clipPath id="clip17"><rect x="2664" y="1216" width="1650" height="990"/></clipPath><clipPath id="clip18"><rect x="2664" y="1216" width="1650" height="990"/></clipPath><clipPath id="clip19"><rect x="2664" y="1216" width="1650" height="990"/></clipPath><clipPath id="clip20"><rect x="2664" y="1216" width="1650" height="990"/></clipPath><clipPath id="clip21"><rect x="2664" y="1216" width="1650" height="990"/></clipPath><clipPath id="clip22"><rect x="2664" y="1216" width="1650" height="990"/></clipPath><clipPath id="clip23"><rect x="2664" y="1216" width="1650" height="990"/></clipPath><clipPath id="clip24"><rect x="2664" y="1216" width="1650" height="990"/></clipPath><clipPath id="clip25"><rect x="2664" y="1216" width="1650" height="990"/></clipPath><clipPath id="clip26"><rect x="2664" y="1216" width="1650" height="990"/></clipPath><clipPath id="clip27"><rect x="2664" y="1216" width="1650" height="990"/></clipPath><clipPath id="clip28"><rect x="2664" y="1216" width="1650" height="990"/></clipPath><clipPath id="clip29"><rect x="2664" y="1216" width="1650" height="990"/></clipPath><clipPath id="clip30"><rect x="2664" y="1216" width="1650" height="990"/></clipPath><clipPath id="clip31"><rect x="2664" y="1216" width="1650" height="990"/></clipPath><clipPath id="clip32"><rect x="2664" y="1216" width="1650" height="990"/></clipPath><clipPath id="clip33"><rect x="2664" y="1216" width="1650" height="990"/></clipPath><clipPath id="clip34"><rect x="2664" y="1216" width="1650" height="990"/></clipPath><clipPath id="clip35"><rect x="2664" y="1216" width="1650" height="990"/></clipPath><clipPath id="clip36"><rect x="2664" y="1216" width="1650" height="990"/></clipPath><clipPath id="clip37"><rect x="2664" y="1216" width="1650" height="990"/></clipPath><clipPath id="clip38"><rect x="2664" y="1216" width="1650" height="990"/></clipPath><clipPath id="clip39"><rect x="2664" y="1216" width="1650" height="990"/></clipPath></defs><g clip-path="url(#clip0)" transform="translate(-2663 -1216)"><rect x="2664" y="1217" width="1650" height="990" fill="#FFFFFF"/><g clip-path="url(#clip1)"><path d="M2923.5 1888.56 3838.5 1888.56M2923.5 1824.56 3838.5 1824.56M2923.5 1759.56 3838.5 1759.56M2923.5 1695.56 3838.5 1695.56M2923.5 1630.55 3838.5 1630.55M2923.5 1566.55 3838.5 1566.55M2923.5 1501.55 3838.5 1501.55M2923.5 1437.55 3838.5 1437.55M2923.5 1373.5 3838.5 1373.5" stroke="#D9D9D9" stroke-width="3.4375" stroke-linejoin="round" stroke-miterlimit="10" fill="none"/></g><g clip-path="url(#clip2)"><path d="M2969.1 1526.05 3010.1 1526.05 3010.1 1953 2969.1 1953ZM3152.1 1535.05 3193.1 1535.05 3193.1 1953 3152.1 1953ZM3335.11 1633.05 3376.11 1633.05 3376.11 1953 3335.11 1953ZM3518.12 1539.05 3559.12 1539.05 3559.12 1953 3518.12 1953ZM3701.12 1405.05 3742.12 1405.05 3742.12 1953 3701.12 1953Z" fill="#4472C4"/></g><g clip-path="url(#clip3)"><path d="M3021.1 1552.05 3062.1 1552.05 3062.1 1953 3021.1 1953ZM3204.11 1617.05 3245.11 1617.05 3245.11 1953 3204.11 1953ZM3387.11 1707.06 3428.11 1707.06 3428.11 1953 3387.11 1953ZM3570.12 1423.05 3611.12 1423.05 3611.12 1953 3570.12 1953ZM3753.12 1497.05 3794.12 1497.05 3794.12 1953 3753.12 1953Z" fill="#ED7D31"/></g><g clip-path="url(#clip4)"><path d="M2923.5 1953.5 3838.5 1953.5" stroke="#D9D9D9" stroke-width="3.4375" stroke-linejoin="round" stroke-miterlimit="10" fill="none" fill-rule="evenodd"/></g><g clip-path="url(#clip5)"><text fill="#404040" font-family="Calibri,Calibri_MSFontService,sans-serif" font-weight="400" font-size="41" transform="matrix(1 0 0 1 2942.06 1494)">03:11</text></g><g clip-path="url(#clip6)"><text fill="#404040" font-family="Calibri,Calibri_MSFontService,sans-serif" font-weight="400" font-size="41" transform="matrix(1 0 0 1 3125.02 1503)">03:07</text></g><g clip-path="url(#clip7)"><text fill="#404040" font-family="Calibri,Calibri_MSFontService,sans-serif" font-weight="400" font-size="41" transform="matrix(1 0 0 1 3307.98 1601)">02:23</text></g><g clip-path="url(#clip8)"><text fill="#404040" font-family="Calibri,Calibri_MSFontService,sans-serif" font-weight="400" font-size="41" transform="matrix(1 0 0 1 3490.93 1507)">03:05</text></g><g clip-path="url(#clip9)"><text fill="#404040" font-family="Calibri,Calibri_MSFontService,sans-serif" font-weight="400" font-size="41" transform="matrix(1 0 0 1 3673.89 1373)">04:05</text></g><g clip-path="url(#clip10)"><text fill="#404040" font-family="Calibri,Calibri_MSFontService,sans-serif" font-weight="400" font-size="41" transform="matrix(1 0 0 1 2994.16 1521)">02:59</text></g><g clip-path="url(#clip11)"><text fill="#404040" font-family="Calibri,Calibri_MSFontService,sans-serif" font-weight="400" font-size="41" transform="matrix(1 0 0 1 3177.12 1585)">02:30</text></g><g clip-path="url(#clip12)"><text fill="#404040" font-family="Calibri,Calibri_MSFontService,sans-serif" font-weight="400" font-size="41" transform="matrix(1 0 0 1 3360.07 1675)">01:50</text></g><g clip-path="url(#clip13)"><text fill="#404040" font-family="Calibri,Calibri_MSFontService,sans-serif" font-weight="400" font-size="41" transform="matrix(1 0 0 1 3543.03 1391)">03:57</text></g><g clip-path="url(#clip14)"><text fill="#404040" font-family="Calibri,Calibri_MSFontService,sans-serif" font-weight="400" font-size="41" transform="matrix(1 0 0 1 3725.99 1465)">03:24</text></g><g clip-path="url(#clip15)"><text fill="#595959" font-family="Calibri,Calibri_MSFontService,sans-serif" font-weight="400" font-size="41" transform="matrix(1 0 0 1 2791.04 1965)">00:00</text></g><g clip-path="url(#clip16)"><text fill="#595959" font-family="Calibri,Calibri_MSFontService,sans-serif" font-weight="400" font-size="41" transform="matrix(1 0 0 1 2791.04 1900)">00:28</text></g><g clip-path="url(#clip17)"><text fill="#595959" font-family="Calibri,Calibri_MSFontService,sans-serif" font-weight="400" font-size="41" transform="matrix(1 0 0 1 2791.04 1836)">00:57</text></g><g clip-path="url(#clip18)"><text fill="#595959" font-family="Calibri,Calibri_MSFontService,sans-serif" font-weight="400" font-size="41" transform="matrix(1 0 0 1 2791.04 1771)">01:26</text></g><g clip-path="url(#clip19)"><text fill="#595959" font-family="Calibri,Calibri_MSFontService,sans-serif" font-weight="400" font-size="41" transform="matrix(1 0 0 1 2791.04 1707)">01:55</text></g><g clip-path="url(#clip20)"><text fill="#595959" font-family="Calibri,Calibri_MSFontService,sans-serif" font-weight="400" font-size="41" transform="matrix(1 0 0 1 2791.04 1642)">02:24</text></g><g clip-path="url(#clip21)"><text fill="#595959" font-family="Calibri,Calibri_MSFontService,sans-serif" font-weight="400" font-size="41" transform="matrix(1 0 0 1 2791.04 1578)">02:52</text></g><g clip-path="url(#clip22)"><text fill="#595959" font-family="Calibri,Calibri_MSFontService,sans-serif" font-weight="400" font-size="41" transform="matrix(1 0 0 1 2791.04 1514)">03:21</text></g><g clip-path="url(#clip23)"><text fill="#595959" font-family="Calibri,Calibri_MSFontService,sans-serif" font-weight="400" font-size="41" transform="matrix(1 0 0 1 2791.04 1449)">03:50</text></g><g clip-path="url(#clip24)"><text fill="#595959" font-family="Calibri,Calibri_MSFontService,sans-serif" font-weight="400" font-size="41" transform="matrix(1 0 0 1 2791.04 1385)">04:19</text></g><g clip-path="url(#clip25)"><text fill="#595959" font-family="Calibri,Calibri_MSFontService,sans-serif" font-weight="400" font-size="41" transform="matrix(1 0 0 1 2929.2 2018)">Proband 1</text></g><g clip-path="url(#clip26)"><text fill="#595959" font-family="Calibri,Calibri_MSFontService,sans-serif" font-weight="400" font-size="41" transform="matrix(1 0 0 1 3112.16 2018)">Proband 2</text></g><g clip-path="url(#clip27)"><text fill="#595959" font-family="Calibri,Calibri_MSFontService,sans-serif" font-weight="400" font-size="41" transform="matrix(1 0 0 1 3295.11 2018)">Proband 3</text></g><g clip-path="url(#clip28)"><text fill="#595959" font-family="Calibri,Calibri_MSFontService,sans-serif" font-weight="400" font-size="41" transform="matrix(1 0 0 1 3478.07 2018)">Proband 4</text></g><g clip-path="url(#clip29)"><text fill="#595959" font-family="Calibri,Calibri_MSFontService,sans-serif" font-weight="400" font-size="41" transform="matrix(1 0 0 1 3661.03 2018)">Proband 5</text></g><g clip-path="url(#clip30)"><text fill="#595959" font-family="Calibri,Calibri_MSFontService,sans-serif" font-weight="400" font-size="46" transform="matrix(6.12323e-17 -1 1 6.12323e-17 2765.35 1698)">Zeit</text></g><g clip-path="url(#clip31)"><text fill="#595959" font-family="Calibri,Calibri_MSFontService,sans-serif" font-weight="400" font-size="46" transform="matrix(1 0 0 1 3302.33 2087)">Proband</text></g><g clip-path="url(#clip32)"><text fill="#595959" font-family="Calibri,Calibri_MSFontService,sans-serif" font-weight="400" font-size="64" transform="matrix(1 0 0 1 3306.9 1312)">Benötigte Zeit</text></g><g clip-path="url(#clip33)"><rect x="3904" y="1516" width="23" height="23" fill="#4472C4"/></g><g clip-path="url(#clip34)"><text fill="#595959" font-family="Calibri,Calibri_MSFontService,sans-serif" font-weight="400" font-size="41" transform="matrix(1 0 0 1 3936.16 1539)">Prototyp 1</text></g><g clip-path="url(#clip35)"><text fill="#595959" font-family="Calibri,Calibri_MSFontService,sans-serif" font-weight="400" font-size="41" transform="matrix(1 0 0 1 3936.16 1590)">(Permanenter</text></g><g clip-path="url(#clip36)"><text fill="#595959" font-family="Calibri,Calibri_MSFontService,sans-serif" font-weight="400" font-size="41" transform="matrix(1 0 0 1 3936.16 1640)">Marker)</text></g><g clip-path="url(#clip37)"><rect x="3904" y="1731" width="23" height="22" fill="#ED7D31"/></g><g clip-path="url(#clip38)"><text fill="#595959" font-family="Calibri,Calibri_MSFontService,sans-serif" font-weight="400" font-size="41" transform="matrix(1 0 0 1 3936.16 1753)">Prototyp 2 (Marker</text></g><g clip-path="url(#clip39)"><text fill="#595959" font-family="Calibri,Calibri_MSFontService,sans-serif" font-weight="400" font-size="41" transform="matrix(1 0 0 1 3936.16 1804)">mit Hotkeys)</text></g><rect x="2664.5" y="1217.5" width="1650" height="990" stroke="#D9D9D9" stroke-width="3.4375" stroke-linejoin="round" stroke-miterlimit="10" fill="none"/></g></svg>