<svg width="1653" height="993" xmlns="http://www.w3.org/2000/svg" xmlns:xlink="http://www.w3.org/1999/xlink" overflow="hidden"><defs><clipPath id="clip0"><rect x="1716" y="759" width="1653" height="993"/></clipPath><clipPath id="clip1"><rect x="1717" y="759" width="1650" height="990"/></clipPath><clipPath id="clip2"><rect x="2029" y="929" width="1291" height="620"/></clipPath><clipPath id="clip3"><rect x="1717" y="759" width="1650" height="990"/></clipPath><clipPath id="clip4"><rect x="1717" y="759" width="1650" height="990"/></clipPath><clipPath id="clip5"><rect x="1717" y="759" width="1650" height="990"/></clipPath><clipPath id="clip6"><rect x="1717" y="759" width="1650" height="990"/></clipPath><clipPath id="clip7"><rect x="1717" y="759" width="1650" height="990"/></clipPath><clipPath id="clip8"><rect x="1717" y="759" width="1650" height="990"/></clipPath><clipPath id="clip9"><rect x="1717" y="759" width="1650" height="990"/></clipPath><clipPath id="clip10"><rect x="1717" y="759" width="1650" height="990"/></clipPath><clipPath id="clip11"><rect x="1717" y="759" width="1650" height="990"/></clipPath><clipPath id="clip12"><rect x="1717" y="759" width="1650" height="990"/></clipPath><clipPath id="clip13"><rect x="1717" y="759" width="1650" height="990"/></clipPath><clipPath id="clip14"><rect x="1717" y="759" width="1650" height="990"/></clipPath><clipPath id="clip15"><rect x="1717" y="759" width="1650" height="990"/></clipPath><clipPath id="clip16"><rect x="1717" y="759" width="1650" height="990"/></clipPath><clipPath id="clip17"><rect x="1717" y="759" width="1650" height="990"/></clipPath><clipPath id="clip18"><rect x="1717" y="759" width="1650" height="990"/></clipPath><clipPath id="clip19"><rect x="1717" y="759" width="1650" height="990"/></clipPath><clipPath id="clip20"><rect x="1717" y="759" width="1650" height="990"/></clipPath><clipPath id="clip21"><rect x="1717" y="759" width="1650" height="990"/></clipPath><clipPath id="clip22"><rect x="1717" y="759" width="1650" height="990"/></clipPath><clipPath id="clip23"><rect x="1717" y="759" width="1650" height="990"/></clipPath><clipPath id="clip24"><rect x="1717" y="759" width="1650" height="990"/></clipPath><clipPath id="clip25"><rect x="1717" y="759" width="1650" height="990"/></clipPath><clipPath id="clip26"><rect x="1717" y="759" width="1650" height="990"/></clipPath><clipPath id="clip27"><rect x="1717" y="759" width="1650" height="990"/></clipPath></defs><g clip-path="url(#clip0)" transform="translate(-1716 -759)"><rect x="1717" y="760" width="1650" height="990" fill="#FFFFFF"/><g clip-path="url(#clip1)"><path d="M2029.5 1484.55 3316.5 1484.55M2029.5 1422.55 3316.5 1422.55M2029.5 1361.54 3316.5 1361.54M2029.5 1299.54 3316.5 1299.54M2029.5 1237.54 3316.5 1237.54M2029.5 1176.54 3316.5 1176.54M2029.5 1114.54 3316.5 1114.54M2029.5 1052.53 3316.5 1052.53M2029.5 991.533 3316.5 991.533M2029.5 929.5 3316.5 929.5" stroke="#D9D9D9" stroke-width="3.4375" stroke-linejoin="round" stroke-miterlimit="10" fill="none"/></g><g clip-path="url(#clip2)"><path d="M2118.07 1092.04 2199.07 1092.04 2199.07 1546 2118.07 1546ZM2375.08 1071.04 2456.08 1071.04 2456.08 1546 2375.08 1546ZM2633.09 1002.03 2713.09 1002.03 2713.09 1546 2633.09 1546ZM2890.09 1058.03 2971.1 1058.03 2971.1 1546 2890.09 1546ZM3147.1 1296.04 3228.11 1296.04 3228.11 1546 3147.1 1546Z" fill="#4472C4"/></g><g clip-path="url(#clip3)"><path d="M2029.5 1546.5 3316.5 1546.5" stroke="#D9D9D9" stroke-width="3.4375" stroke-linejoin="round" stroke-miterlimit="10" fill="none" fill-rule="evenodd"/></g><g clip-path="url(#clip4)"><text fill="#404040" font-family="Calibri,Calibri_MSFontService,sans-serif" font-weight="400" font-size="41" transform="matrix(1 0 0 1 2084.71 1060)">03:32:00</text></g><g clip-path="url(#clip5)"><text fill="#404040" font-family="Calibri,Calibri_MSFontService,sans-serif" font-weight="400" font-size="41" transform="matrix(1 0 0 1 2342.08 1039)">03:42:00</text></g><g clip-path="url(#clip6)"><text fill="#404040" font-family="Calibri,Calibri_MSFontService,sans-serif" font-weight="400" font-size="41" transform="matrix(1 0 0 1 2599.45 970)">04:14:00</text></g><g clip-path="url(#clip7)"><text fill="#404040" font-family="Calibri,Calibri_MSFontService,sans-serif" font-weight="400" font-size="41" transform="matrix(1 0 0 1 2856.82 1026)">03:48:00</text></g><g clip-path="url(#clip8)"><text fill="#404040" font-family="Calibri,Calibri_MSFontService,sans-serif" font-weight="400" font-size="41" transform="matrix(1 0 0 1 3114.18 1264)">01:57:00</text></g><g clip-path="url(#clip9)"><text fill="#595959" font-family="Calibri,Calibri_MSFontService,sans-serif" font-weight="400" font-size="41" transform="matrix(1 0 0 1 1844.01 1558)">00:00:00</text></g><g clip-path="url(#clip10)"><text fill="#595959" font-family="Calibri,Calibri_MSFontService,sans-serif" font-weight="400" font-size="41" transform="matrix(1 0 0 1 1844.01 1496)">00:28:48</text></g><g clip-path="url(#clip11)"><text fill="#595959" font-family="Calibri,Calibri_MSFontService,sans-serif" font-weight="400" font-size="41" transform="matrix(1 0 0 1 1844.01 1434)">00:57:36</text></g><g clip-path="url(#clip12)"><text fill="#595959" font-family="Calibri,Calibri_MSFontService,sans-serif" font-weight="400" font-size="41" transform="matrix(1 0 0 1 1844.01 1373)">01:26:24</text></g><g clip-path="url(#clip13)"><text fill="#595959" font-family="Calibri,Calibri_MSFontService,sans-serif" font-weight="400" font-size="41" transform="matrix(1 0 0 1 1844.01 1311)">01:55:12</text></g><g clip-path="url(#clip14)"><text fill="#595959" font-family="Calibri,Calibri_MSFontService,sans-serif" font-weight="400" font-size="41" transform="matrix(1 0 0 1 1844.01 1249)">02:24:00</text></g><g clip-path="url(#clip15)"><text fill="#595959" font-family="Calibri,Calibri_MSFontService,sans-serif" font-weight="400" font-size="41" transform="matrix(1 0 0 1 1844.01 1188)">02:52:48</text></g><g clip-path="url(#clip16)"><text fill="#595959" font-family="Calibri,Calibri_MSFontService,sans-serif" font-weight="400" font-size="41" transform="matrix(1 0 0 1 1844.01 1126)">03:21:36</text></g><g clip-path="url(#clip17)"><text fill="#595959" font-family="Calibri,Calibri_MSFontService,sans-serif" font-weight="400" font-size="41" transform="matrix(1 0 0 1 1844.01 1065)">03:50:24</text></g><g clip-path="url(#clip18)"><text fill="#595959" font-family="Calibri,Calibri_MSFontService,sans-serif" font-weight="400" font-size="41" transform="matrix(1 0 0 1 1844.01 1003)">04:19:12</text></g><g clip-path="url(#clip19)"><text fill="#595959" font-family="Calibri,Calibri_MSFontService,sans-serif" font-weight="400" font-size="41" transform="matrix(1 0 0 1 1844.01 941)">04:48:00</text></g><g clip-path="url(#clip20)"><text fill="#595959" font-family="Calibri,Calibri_MSFontService,sans-serif" font-weight="400" font-size="41" transform="matrix(1 0 0 1 2072.22 1611)">Proband 1</text></g><g clip-path="url(#clip21)"><text fill="#595959" font-family="Calibri,Calibri_MSFontService,sans-serif" font-weight="400" font-size="41" transform="matrix(1 0 0 1 2329.59 1611)">Proband 2</text></g><g clip-path="url(#clip22)"><text fill="#595959" font-family="Calibri,Calibri_MSFontService,sans-serif" font-weight="400" font-size="41" transform="matrix(1 0 0 1 2586.96 1611)">Proband 3</text></g><g clip-path="url(#clip23)"><text fill="#595959" font-family="Calibri,Calibri_MSFontService,sans-serif" font-weight="400" font-size="41" transform="matrix(1 0 0 1 2844.33 1611)">Proband 4</text></g><g clip-path="url(#clip24)"><text fill="#595959" font-family="Calibri,Calibri_MSFontService,sans-serif" font-weight="400" font-size="41" transform="matrix(1 0 0 1 3101.69 1611)">Proband 5</text></g><g clip-path="url(#clip25)"><text fill="#595959" font-family="Calibri,Calibri_MSFontService,sans-serif" font-weight="400" font-size="46" transform="matrix(6.12323e-17 -1 1 6.12323e-17 1818.32 1273)">Zeit</text></g><g clip-path="url(#clip26)"><text fill="#595959" font-family="Calibri,Calibri_MSFontService,sans-serif" font-weight="400" font-size="46" transform="matrix(1 0 0 1 2570.73 1680)">Probanden</text></g><g clip-path="url(#clip27)"><text fill="#595959" font-family="Calibri,Calibri_MSFontService,sans-serif" font-weight="400" font-size="64" transform="matrix(1 0 0 1 2359.87 855)">Benötigte Zeit</text></g><rect x="1717.5" y="760.5" width="1650" height="990" stroke="#D9D9D9" stroke-width="3.4375" stroke-linejoin="round" stroke-miterlimit="10" fill="none"/></g></svg>